<svg xmlns="http://www.w3.org/2000/svg" xmlns:xlink="http://www.w3.org/1999/xlink" contentStyleType="text/css" data-diagram-type="DESCRIPTION" height="628.3333px" preserveAspectRatio="none" style="width:1370px;height:628px;" version="1.1" viewBox="0 0 1370 628" width="1370px" zoomAndPan="magnify"><?plantuml 1.2026.3?><defs/><g><g class="title" data-source-line="14"><text fill="#000000" font-family="Montserrat" font-size="23.3333" font-weight="700" lengthAdjust="spacing" textLength="557.7555" x="400.988" y="39.2253">Tournament Policy Debate Elimination Bracket</text></g><!--entity team_a--><g class="entity" data-qualified-name="team_a" data-source-line="17" id="ent0002"><rect fill="#0F1217" height="60.8138" rx="20" ry="20" style="stroke:#3B404B;stroke-width:0.8333;" width="245.4297" x="12.35" y="74.1471"/><text fill="#F3F5F7" font-family="Montserrat" font-size="23.3333" lengthAdjust="spacing" textLength="212.0964" x="29.0167" y="113.3724">Legislative Team A</text></g><!--entity team_b--><g class="entity" data-qualified-name="team_b" data-source-line="18" id="ent0003"><rect fill="#0F1217" height="60.8138" rx="20" ry="20" style="stroke:#3B404B;stroke-width:0.8333;" width="242.7523" x="13.7" y="192.4805"/><text fill="#F3F5F7" font-family="Montserrat" font-size="23.3333" lengthAdjust="spacing" textLength="209.4189" x="30.3667" y="231.7057">Legislative Team B</text></g><!--entity semi1--><g class="entity" data-qualified-name="semi1" data-source-line="19" id="ent0004"><rect fill="#0F1217" height="60.8138" rx="20" ry="20" style="stroke:#3B404B;stroke-width:0.8333;" width="159.0007" x="358.4667" y="164.1471"/><text fill="#F3F5F7" font-family="Montserrat" font-size="23.3333" lengthAdjust="spacing" textLength="125.6673" x="375.1333" y="203.3724">Semifinal 1</text></g><!--entity winner1--><g class="entity" data-qualified-name="winner1" data-source-line="20" id="ent0005"><rect fill="#0F1217" height="88.2943" rx="20" ry="20" style="stroke:#3B404B;stroke-width:0.8333;" width="221.9482" x="617.4833" y="77.0638"/><text fill="#F3F5F7" font-family="Montserrat" font-size="23.3333" lengthAdjust="spacing" textLength="91.4421" x="634.15" y="116.2891">Winning</text><text fill="#F3F5F7" font-family="Montserrat" font-size="23.3333" lengthAdjust="spacing" textLength="188.6149" x="634.15" y="143.7695">Legislative Team</text></g><!--entity elim1--><g class="entity" data-qualified-name="elim1" data-source-line="21" id="ent0006"><rect fill="#0F1217" height="88.2943" rx="20" ry="20" style="stroke:#3B404B;stroke-width:0.8333;" width="221.9482" x="617.4833" y="223.7305"/><text fill="#F3F5F7" font-family="Montserrat" font-size="23.3333" lengthAdjust="spacing" textLength="118.444" x="634.15" y="262.9557">Eliminated</text><text fill="#F3F5F7" font-family="Montserrat" font-size="23.3333" lengthAdjust="spacing" textLength="188.6149" x="634.15" y="290.4362">Legislative Team</text></g><!--entity team_c--><g class="entity" data-qualified-name="team_c" data-source-line="23" id="ent0007"><rect fill="#0F1217" height="60.8138" rx="20" ry="20" style="stroke:#3B404B;stroke-width:0.8333;" width="245.4753" x="12.3333" y="414.1471"/><text fill="#F3F5F7" font-family="Montserrat" font-size="23.3333" lengthAdjust="spacing" textLength="212.1419" x="29" y="453.3724">Legislative Team C</text></g><!--entity team_d--><g class="entity" data-qualified-name="team_d" data-source-line="24" id="ent0008"><rect fill="#0F1217" height="60.8138" rx="20" ry="20" style="stroke:#3B404B;stroke-width:0.8333;" width="246.8083" x="11.6667" y="532.4805"/><text fill="#F3F5F7" font-family="Montserrat" font-size="23.3333" lengthAdjust="spacing" textLength="213.4749" x="28.3333" y="571.7057">Legislative Team D</text></g><!--entity semi2--><g class="entity" data-qualified-name="semi2" data-source-line="25" id="ent0009"><rect fill="#0F1217" height="60.8138" rx="20" ry="20" style="stroke:#3B404B;stroke-width:0.8333;" width="159.0007" x="358.4667" y="474.1471"/><text fill="#F3F5F7" font-family="Montserrat" font-size="23.3333" lengthAdjust="spacing" textLength="125.6673" x="375.1333" y="513.3724">Semifinal 2</text></g><!--entity winner2--><g class="entity" data-qualified-name="winner2" data-source-line="26" id="ent0010"><rect fill="#0F1217" height="88.2943" rx="20" ry="20" style="stroke:#3B404B;stroke-width:0.8333;" width="221.9482" x="617.4833" y="370.3971"/><text fill="#F3F5F7" font-family="Montserrat" font-size="23.3333" lengthAdjust="spacing" textLength="91.4421" x="634.15" y="409.6224">Winning</text><text fill="#F3F5F7" font-family="Montserrat" font-size="23.3333" lengthAdjust="spacing" textLength="188.6149" x="634.15" y="437.1029">Legislative Team</text></g><!--entity elim2--><g class="entity" data-qualified-name="elim2" data-source-line="27" id="ent0011"><rect fill="#0F1217" height="88.2943" rx="20" ry="20" style="stroke:#3B404B;stroke-width:0.8333;" width="221.9482" x="617.4833" y="517.0638"/><text fill="#F3F5F7" font-family="Montserrat" font-size="23.3333" lengthAdjust="spacing" textLength="118.444" x="634.15" y="556.2891">Eliminated</text><text fill="#F3F5F7" font-family="Montserrat" font-size="23.3333" lengthAdjust="spacing" textLength="188.6149" x="634.15" y="583.7695">Legislative Team</text></g><!--entity final_round--><g class="entity" data-qualified-name="final_round" data-source-line="29" id="ent0012"><rect fill="#0F1217" height="60.8138" rx="20" ry="20" style="stroke:#3B404B;stroke-width:0.8333;" width="86.6992" x="939.4167" y="237.4805"/><text fill="#F3F5F7" font-family="Montserrat" font-size="23.3333" lengthAdjust="spacing" textLength="53.3659" x="956.0833" y="276.7057">Final</text></g><!--entity champion--><g class="entity" data-qualified-name="champion" data-source-line="30" id="ent0013"><rect fill="#0F1217" height="88.2943" rx="20" ry="20" style="stroke:#3B404B;stroke-width:0.8333;" width="221.9482" x="1126.1167" y="223.7305"/><text fill="#F3F5F7" font-family="Montserrat" font-size="23.3333" lengthAdjust="spacing" textLength="152.1908" x="1142.7833" y="262.9557">Final Winning</text><text fill="#F3F5F7" font-family="Montserrat" font-size="23.3333" lengthAdjust="spacing" textLength="188.6149" x="1142.7833" y="290.4362">Legislative Team</text></g><!--link team_a to semi1--><g class="link" data-entity-1="ent0002" data-entity-2="ent0004" data-link-type="dependency" data-source-line="32" id="lnk14"><path d="M240.6667,135.7805 C279.2,147.3471 312.6405,157.3834 348.4905,168.1667" fill="none" id="team_a-to-semi1" style="stroke:#F3F5F7;stroke-width:3.3333;"/><polygon fill="#F3F5F7" points="358.0667,171.0471,345.6227,160.3424,350.0865,168.6468,341.7821,173.1106,358.0667,171.0471" style="stroke:#F3F5F7;stroke-width:3.3333;"/></g><!--link team_b to semi1--><g class="link" data-entity-1="ent0003" data-entity-2="ent0004" data-link-type="dependency" data-source-line="33" id="lnk15"><path d="M256.8667,211.5305 C290.8833,208.2971 317.0777,205.8212 347.9443,202.9045" fill="none" id="team_b-to-semi1" style="stroke:#F3F5F7;stroke-width:3.3333;"/><polygon fill="#F3F5F7" points="357.9,201.9638,342.3394,196.7378,349.6036,202.7477,343.5937,210.012,357.9,201.9638" style="stroke:#F3F5F7;stroke-width:3.3333;"/></g><!--link semi1 to winner1--><g class="link" data-entity-1="ent0004" data-entity-2="ent0005" data-link-type="dependency" data-source-line="34" id="lnk16"><path d="M518.1,174.5138 C548.4833,166.7471 574.1272,160.2032 606.9772,151.8199" fill="none" id="semi1-to-winner1" style="stroke:#F3F5F7;stroke-width:3.3333;"/><polygon fill="#F3F5F7" points="616.6667,149.3471,600.484,146.5966,608.5921,151.4078,603.781,159.5159,616.6667,149.3471" style="stroke:#F3F5F7;stroke-width:3.3333;"/></g><!--link semi1 to elim1--><g class="link" data-entity-1="ent0004" data-entity-2="ent0006" data-link-type="dependency" data-source-line="35" id="lnk17"><path d="M518.1,214.5805 C548.4833,222.3471 574.1284,228.8864 606.9784,237.2864" fill="none" id="semi1-to-elim1" style="stroke:#F3F5F7;stroke-width:3.3333;"/><polygon fill="#F3F5F7" points="616.6667,239.7638,603.7858,229.5889,608.5931,237.6993,600.4827,242.5066,616.6667,239.7638" style="stroke:#F3F5F7;stroke-width:3.3333;"/></g><!--link team_c to semi2--><g class="link" data-entity-1="ent0007" data-entity-2="ent0009" data-link-type="dependency" data-source-line="37" id="lnk18"><path d="M258.5833,468.9471 C292.1167,475.6638 317.7771,480.8214 348.1438,486.888" fill="none" id="team_c-to-semi2" style="stroke:#F3F5F7;stroke-width:3.3333;"/><polygon fill="#F3F5F7" points="357.95,488.8471,344.5467,479.371,349.7781,487.2146,341.9346,492.446,357.95,488.8471" style="stroke:#F3F5F7;stroke-width:3.3333;"/></g><!--link team_d to semi2--><g class="link" data-entity-1="ent0008" data-entity-2="ent0009" data-link-type="dependency" data-source-line="38" id="lnk19"><path d="M259.0167,539.0805 C292.35,532.5805 317.7347,527.6437 347.9181,521.7603" fill="none" id="team_d-to-semi2" style="stroke:#F3F5F7;stroke-width:3.3333;"/><polygon fill="#F3F5F7" points="357.7333,519.8471,341.735,516.1734,349.5539,521.4415,344.2859,529.2604,357.7333,519.8471" style="stroke:#F3F5F7;stroke-width:3.3333;"/></g><!--link semi2 to winner2--><g class="link" data-entity-1="ent0009" data-entity-2="ent0010" data-link-type="dependency" data-source-line="39" id="lnk20"><path d="M518.1,479.9638 C548.4833,470.4305 574.2747,462.3556 607.1247,452.0556" fill="none" id="semi2-to-winner2" style="stroke:#F3F5F7;stroke-width:3.3333;"/><polygon fill="#F3F5F7" points="616.6667,449.0638,600.3592,447.1903,608.715,451.557,604.3483,459.9129,616.6667,449.0638" style="stroke:#F3F5F7;stroke-width:3.3333;"/></g><!--link semi2 to elim2--><g class="link" data-entity-1="ent0009" data-entity-2="ent0011" data-link-type="dependency" data-source-line="40" id="lnk21"><path d="M518.1,520.0305 C548.4833,526.0305 574.0059,531.0609 606.8559,537.5442" fill="none" id="semi2-to-elim2" style="stroke:#F3F5F7;stroke-width:3.3333;"/><polygon fill="#F3F5F7" points="616.6667,539.4805,603.2414,530.0356,608.491,537.8669,600.6597,543.1166,616.6667,539.4805" style="stroke:#F3F5F7;stroke-width:3.3333;"/></g><!--link winner1 to final_round--><g class="link" data-entity-1="ent0005" data-entity-2="ent0012" data-link-type="dependency" data-source-line="42" id="lnk22"><path d="M806.7833,166.0138 C850.3167,191.4638 894.5147,217.2875 930.5313,238.3209" fill="none" id="winner1-to-final_round" style="stroke:#F3F5F7;stroke-width:3.3333;"/><polygon fill="#F3F5F7" points="939.1667,243.3638,929.5756,230.0425,931.9706,239.1614,922.8517,241.5563,939.1667,243.3638" style="stroke:#F3F5F7;stroke-width:3.3333;"/></g><!--link winner2 to final_round--><g class="link" data-entity-1="ent0010" data-entity-2="ent0012" data-link-type="dependency" data-source-line="43" id="lnk23"><path d="M806.7833,369.7471 C850.3167,344.3138 894.5147,318.4734 930.5313,297.4401" fill="none" id="winner2-to-final_round" style="stroke:#F3F5F7;stroke-width:3.3333;"/><polygon fill="#F3F5F7" points="939.1667,292.3971,922.8517,294.2047,931.9706,296.5996,929.5756,305.7184,939.1667,292.3971" style="stroke:#F3F5F7;stroke-width:3.3333;"/></g><!--link final_round to champion--><g class="link" data-entity-1="ent0012" data-entity-2="ent0013" data-link-type="dependency" data-source-line="44" id="lnk24"><path d="M1026.45,267.8805 C1053.6667,267.8805 1080.4667,267.8805 1115.6,267.8805" fill="none" id="final_round-to-champion" style="stroke:#F3F5F7;stroke-width:3.3333;"/><polygon fill="#F3F5F7" points="1125.6,267.8805,1110.6,261.2138,1117.2667,267.8805,1110.6,274.5471,1125.6,267.8805" style="stroke:#F3F5F7;stroke-width:3.3333;"/></g><?plantuml-src bLBHQi8m57tFLrpqMR3LpRV1gklJDiOcx6KWiRbjWsaYIPoCiNzVcbORTIlu4f9pphqv9pTcm-MMQbh1ccQRGgkTP7Cbb0QhgJIEGcc9EQfCIPdQSrb0JeN1W65R3j7jE4GmfpjXKoNjCwqGdjp6eDOqR7YljTetDmxJINgJpix9PScpZKHZ80ueZPcbiX08tmGWEJC_7ATH7CrgHcc6kaKdoNGyJHnQUpgz5E2rATSIDSHJyaE8vTRrNwgTbiw_jF2Y1C--O85hQX4U1A-uf9Oh2Obs3j0IWRa5gq3pehJ0U6tJyOHqVWUFM70ZNDsdQuvrp05G0zPjLxHNc7J2TIXymuhdpeg0o2kCEqUXu9rBwORs8SzRUhcRfmjzKd38XkoV6dI2g3_Ml7ERzGeNdP3z7Ii-neglZHLV7Ii-YPNM1ZpdhQpyBxiGGB-LhAJLrl-3Piem6jsrKsgc6G1-zUV3N3gaVVNcJOyrSGEm0F1hq2H4senjTm-5qTg22ppOU-wOwHS0?></g></svg>