<svg xmlns="http://www.w3.org/2000/svg" xmlns:xlink="http://www.w3.org/1999/xlink" contentStyleType="text/css" data-diagram-type="DESCRIPTION" height="3708.3333px" preserveAspectRatio="none" style="width:813px;height:3708px;" version="1.1" viewBox="0 0 813 3708" width="813.3333px" zoomAndPan="magnify"><?plantuml 1.2026.3?><defs/><g><g class="title" data-source-line="14"><text fill="#000000" font-family="Montserrat" font-size="23.3333" font-weight="700" lengthAdjust="spacing" textLength="465.835" x="168.3607" y="39.2253">Tournament Policy Debate Round Flow</text></g><!--entity motion--><g class="entity" data-qualified-name="motion" data-source-line="17" id="ent0002"><rect fill="#0F1217" height="60.8138" rx="20" ry="20" style="stroke:#3B404B;stroke-width:0.8333;" width="257.6318" x="300.0333" y="74.1471"/><text fill="#F3F5F7" font-family="Montserrat" font-size="23.3333" lengthAdjust="spacing" textLength="224.2985" x="316.7" y="113.3724">Share policy motion</text></g><!--entity definition--><g class="entity" data-qualified-name="definition" data-source-line="18" id="ent0003"><rect fill="#0F1217" height="60.8138" rx="20" ry="20" style="stroke:#3B404B;stroke-width:0.8333;" width="341.7367" x="257.9833" y="234.9638"/><text fill="#F3F5F7" font-family="Montserrat" font-size="23.3333" lengthAdjust="spacing" textLength="308.4033" x="274.65" y="274.1891">Define the motion together</text></g><!--entity teams--><g class="entity" data-qualified-name="teams" data-source-line="19" id="ent0004"><rect fill="#0F1217" height="88.2943" rx="20" ry="20" style="stroke:#3B404B;stroke-width:0.8333;" width="339.6289" x="259.0333" y="395.7805"/><text fill="#F3F5F7" font-family="Montserrat" font-size="23.3333" lengthAdjust="spacing" textLength="276.4795" x="275.7" y="435.0057">Form 4 legislative teams</text><text fill="#F3F5F7" font-family="Montserrat" font-size="23.3333" lengthAdjust="spacing" textLength="306.2956" x="275.7" y="462.4862">and 1 executive committee</text></g><!--entity president--><g class="entity" data-qualified-name="president" data-source-line="20" id="ent0005"><rect fill="#0F1217" height="60.8138" rx="20" ry="20" style="stroke:#3B404B;stroke-width:0.8333;" width="436.8701" x="210.4167" y="584.0805"/><text fill="#F3F5F7" font-family="Montserrat" font-size="23.3333" lengthAdjust="spacing" textLength="403.5368" x="227.0833" y="623.3057">Choose executive committee leader</text></g><!--entity prep--><g class="entity" data-qualified-name="prep" data-source-line="21" id="ent0006"><rect fill="#0F1217" height="115.7747" rx="20" ry="20" style="stroke:#3B404B;stroke-width:0.8333;" width="420.7487" x="218.4667" y="744.8971"/><text fill="#F3F5F7" font-family="Montserrat" font-size="23.3333" lengthAdjust="spacing" textLength="261.8164" x="235.1333" y="784.1224">15-20 min preparation</text><text fill="#F3F5F7" font-family="Montserrat" font-size="23.3333" lengthAdjust="spacing" textLength="232.5244" x="235.1333" y="811.6029">Teams build policies</text><text fill="#F3F5F7" font-family="Montserrat" font-size="23.3333" lengthAdjust="spacing" textLength="387.4154" x="235.1333" y="839.0833">Committee sets evaluation criteria</text></g><!--entity semi1--><g class="entity" data-qualified-name="semi1" data-source-line="23" id="ent0007"><rect fill="#0F1217" height="88.2943" rx="20" ry="20" style="stroke:#3B404B;stroke-width:0.8333;" width="493.5856" x="182.05" y="960.6638"/><text fill="#F3F5F7" font-family="Montserrat" font-size="23.3333" lengthAdjust="spacing" textLength="125.6673" x="198.7167" y="999.8891">Semifinal 1</text><text fill="#F3F5F7" font-family="Montserrat" font-size="23.3333" lengthAdjust="spacing" textLength="460.2523" x="198.7167" y="1027.3695">Legislative Team A vs Legislative Team B</text></g><!--entity open1--><g class="entity" data-qualified-name="open1" data-source-line="24" id="ent0008"><rect fill="#0F1217" height="88.2943" rx="20" ry="20" style="stroke:#3B404B;stroke-width:0.8333;" width="240.6901" x="308.5" y="1148.9638"/><text fill="#F3F5F7" font-family="Montserrat" font-size="23.3333" lengthAdjust="spacing" textLength="207.3568" x="325.1667" y="1188.1891">Opening speeches</text><text fill="#F3F5F7" font-family="Montserrat" font-size="23.3333" lengthAdjust="spacing" textLength="139.6012" x="325.1667" y="1215.6695">~5 min each</text></g><!--entity validate1--><g class="entity" data-qualified-name="validate1" data-source-line="25" id="ent0009"><rect fill="#0F1217" height="88.2943" rx="20" ry="20" style="stroke:#3B404B;stroke-width:0.8333;" width="257.9622" x="299.8667" y="1337.2471"/><text fill="#F3F5F7" font-family="Montserrat" font-size="23.3333" lengthAdjust="spacing" textLength="224.6289" x="316.5333" y="1376.4724">Executive validation</text><text fill="#F3F5F7" font-family="Montserrat" font-size="23.3333" lengthAdjust="spacing" textLength="198.5498" x="316.5333" y="1403.9529">~5 min per policy</text></g><!--entity clash1--><g class="entity" data-qualified-name="clash1" data-source-line="26" id="ent0010"><rect fill="#0F1217" height="88.2943" rx="20" ry="20" style="stroke:#3B404B;stroke-width:0.8333;" width="223.2357" x="317.2333" y="1525.5471"/><text fill="#F3F5F7" font-family="Montserrat" font-size="23.3333" lengthAdjust="spacing" textLength="189.9023" x="333.9" y="1564.7724">Arguments clash</text><text fill="#F3F5F7" font-family="Montserrat" font-size="23.3333" lengthAdjust="spacing" textLength="94.6549" x="333.9" y="1592.2529">~15 min</text></g><!--entity qa1--><g class="entity" data-qualified-name="qa1" data-source-line="27" id="ent0011"><rect fill="#0F1217" height="88.2943" rx="20" ry="20" style="stroke:#3B404B;stroke-width:0.8333;" width="443.3415" x="207.1667" y="1713.8471"/><text fill="#F3F5F7" font-family="Montserrat" font-size="23.3333" lengthAdjust="spacing" textLength="410.0081" x="223.8333" y="1753.0724">Questions + committee deliberation</text><text fill="#F3F5F7" font-family="Montserrat" font-size="23.3333" lengthAdjust="spacing" textLength="108.1559" x="223.8333" y="1780.5529">5-10 min</text></g><!--entity winner1--><g class="entity" data-qualified-name="winner1" data-source-line="28" id="ent0012"><rect fill="#0F1217" height="88.2943" rx="20" ry="20" style="stroke:#3B404B;stroke-width:0.8333;" width="481.4176" x="188.1333" y="1902.1305"/><text fill="#F3F5F7" font-family="Montserrat" font-size="23.3333" lengthAdjust="spacing" textLength="386.9596" x="204.8" y="1941.3557">Winning legislative team advances</text><text fill="#F3F5F7" font-family="Montserrat" font-size="23.3333" lengthAdjust="spacing" textLength="448.0843" x="204.8" y="1968.8362">Losing legislative team joins committee</text></g><!--entity semi2--><g class="entity" data-qualified-name="semi2" data-source-line="30" id="ent0013"><rect fill="#0F1217" height="88.2943" rx="20" ry="20" style="stroke:#3B404B;stroke-width:0.8333;" width="497.6872" x="11.6667" y="2090.4305"/><text fill="#F3F5F7" font-family="Montserrat" font-size="23.3333" lengthAdjust="spacing" textLength="125.6673" x="28.3333" y="2129.6557">Semifinal 2</text><text fill="#F3F5F7" font-family="Montserrat" font-size="23.3333" lengthAdjust="spacing" textLength="464.3538" x="28.3333" y="2157.1362">Legislative Team C vs Legislative Team D</text></g><!--entity open2--><g class="entity" data-qualified-name="open2" data-source-line="31" id="ent0014"><rect fill="#0F1217" height="88.2943" rx="20" ry="20" style="stroke:#3B404B;stroke-width:0.8333;" width="240.6901" x="140.1667" y="2278.7305"/><text fill="#F3F5F7" font-family="Montserrat" font-size="23.3333" lengthAdjust="spacing" textLength="207.3568" x="156.8333" y="2317.9557">Opening speeches</text><text fill="#F3F5F7" font-family="Montserrat" font-size="23.3333" lengthAdjust="spacing" textLength="139.6012" x="156.8333" y="2345.4362">~5 min each</text></g><!--entity validate2--><g class="entity" data-qualified-name="validate2" data-source-line="32" id="ent0015"><rect fill="#0F1217" height="88.2943" rx="20" ry="20" style="stroke:#3B404B;stroke-width:0.8333;" width="257.9622" x="133.2" y="2467.0138"/><text fill="#F3F5F7" font-family="Montserrat" font-size="23.3333" lengthAdjust="spacing" textLength="224.6289" x="149.8667" y="2506.2391">Executive validation</text><text fill="#F3F5F7" font-family="Montserrat" font-size="23.3333" lengthAdjust="spacing" textLength="198.5498" x="149.8667" y="2533.7195">~5 min per policy</text></g><!--entity clash2--><g class="entity" data-qualified-name="clash2" data-source-line="33" id="ent0016"><rect fill="#0F1217" height="88.2943" rx="20" ry="20" style="stroke:#3B404B;stroke-width:0.8333;" width="223.2357" x="152.2333" y="2655.3138"/><text fill="#F3F5F7" font-family="Montserrat" font-size="23.3333" lengthAdjust="spacing" textLength="189.9023" x="168.9" y="2694.5391">Arguments clash</text><text fill="#F3F5F7" font-family="Montserrat" font-size="23.3333" lengthAdjust="spacing" textLength="94.6549" x="168.9" y="2722.0195">~15 min</text></g><!--entity qa2--><g class="entity" data-qualified-name="qa2" data-source-line="34" id="ent0017"><rect fill="#0F1217" height="88.2943" rx="20" ry="20" style="stroke:#3B404B;stroke-width:0.8333;" width="443.3415" x="45.5" y="2843.6138"/><text fill="#F3F5F7" font-family="Montserrat" font-size="23.3333" lengthAdjust="spacing" textLength="410.0081" x="62.1667" y="2882.8391">Questions + committee deliberation</text><text fill="#F3F5F7" font-family="Montserrat" font-size="23.3333" lengthAdjust="spacing" textLength="108.1559" x="62.1667" y="2910.3195">5-10 min</text></g><!--entity winner2--><g class="entity" data-qualified-name="winner2" data-source-line="35" id="ent0018"><rect fill="#0F1217" height="88.2943" rx="20" ry="20" style="stroke:#3B404B;stroke-width:0.8333;" width="481.4176" x="28.1333" y="3031.8971"/><text fill="#F3F5F7" font-family="Montserrat" font-size="23.3333" lengthAdjust="spacing" textLength="386.9596" x="44.8" y="3071.1224">Winning legislative team advances</text><text fill="#F3F5F7" font-family="Montserrat" font-size="23.3333" lengthAdjust="spacing" textLength="448.0843" x="44.8" y="3098.6029">Losing legislative team joins committee</text></g><!--entity final_round--><g class="entity" data-qualified-name="final_round" data-source-line="37" id="ent0019"><rect fill="#0F1217" height="88.2943" rx="20" ry="20" style="stroke:#3B404B;stroke-width:0.8333;" width="621.5202" x="121.4167" y="3220.1971"/><text fill="#F3F5F7" font-family="Montserrat" font-size="23.3333" lengthAdjust="spacing" textLength="128.2764" x="138.0833" y="3259.4224">Final round</text><text fill="#F3F5F7" font-family="Montserrat" font-size="23.3333" lengthAdjust="spacing" textLength="588.1868" x="138.0833" y="3286.9029">Winning legislative team vs winning legislative team</text></g><!--entity summaries--><g class="entity" data-qualified-name="summaries" data-source-line="38" id="ent0020"><rect fill="#0F1217" height="88.2943" rx="20" ry="20" style="stroke:#3B404B;stroke-width:0.8333;" width="345.4964" x="259.4333" y="3408.4971"/><text fill="#F3F5F7" font-family="Montserrat" font-size="23.3333" lengthAdjust="spacing" textLength="251.6764" x="276.1" y="3447.7224">2 min summaries only</text><text fill="#F3F5F7" font-family="Montserrat" font-size="23.3333" lengthAdjust="spacing" textLength="312.1631" x="276.1" y="3475.2029">Policy shape cannot change</text></g><!--entity decision--><g class="entity" data-qualified-name="decision" data-source-line="39" id="ent0021"><rect fill="#0F1217" height="88.2943" rx="20" ry="20" style="stroke:#3B404B;stroke-width:0.8333;" width="717.4398" x="73.45" y="3596.7805"/><text fill="#F3F5F7" font-family="Montserrat" font-size="23.3333" lengthAdjust="spacing" textLength="162.4561" x="90.1167" y="3636.0057">Executive vote</text><text fill="#F3F5F7" font-family="Montserrat" font-size="23.3333" lengthAdjust="spacing" textLength="684.1064" x="90.1167" y="3663.4862">Committee leader declares the final winning legislative team</text></g><!--link motion to definition--><g class="link" data-entity-1="ent0002" data-entity-2="ent0003" data-link-type="dependency" data-source-line="41" id="lnk22"><path d="M428.85,135.1138 C428.85,163.3471 428.85,196.1138 428.85,224.4805" fill="none" id="motion-to-definition" style="stroke:#F3F5F7;stroke-width:3.3333;"/><polygon fill="#F3F5F7" points="428.85,234.4805,435.5167,219.4805,428.85,226.1471,422.1833,219.4805,428.85,234.4805" style="stroke:#F3F5F7;stroke-width:3.3333;"/></g><!--link definition to teams--><g class="link" data-entity-1="ent0003" data-entity-2="ent0004" data-link-type="dependency" data-source-line="42" id="lnk23"><path d="M428.85,296.0805 C428.85,323.3805 428.85,354.5471 428.85,385.5638" fill="none" id="definition-to-teams" style="stroke:#F3F5F7;stroke-width:3.3333;"/><polygon fill="#F3F5F7" points="428.85,395.5638,435.5167,380.5638,428.85,387.2305,422.1833,380.5638,428.85,395.5638" style="stroke:#F3F5F7;stroke-width:3.3333;"/></g><!--link teams to president--><g class="link" data-entity-1="ent0004" data-entity-2="ent0005" data-link-type="dependency" data-source-line="43" id="lnk24"><path d="M428.85,484.7971 C428.85,515.7138 428.85,546.4805 428.85,573.6305" fill="none" id="teams-to-president" style="stroke:#F3F5F7;stroke-width:3.3333;"/><polygon fill="#F3F5F7" points="428.85,583.6305,435.5167,568.6305,428.85,575.2971,422.1833,568.6305,428.85,583.6305" style="stroke:#F3F5F7;stroke-width:3.3333;"/></g><!--link president to prep--><g class="link" data-entity-1="ent0005" data-entity-2="ent0006" data-link-type="dependency" data-source-line="44" id="lnk25"><path d="M428.85,645.0471 C428.85,671.4638 428.85,701.2971 428.85,734.1138" fill="none" id="president-to-prep" style="stroke:#F3F5F7;stroke-width:3.3333;"/><polygon fill="#F3F5F7" points="428.85,744.1138,435.5167,729.1138,428.85,735.7805,422.1833,729.1138,428.85,744.1138" style="stroke:#F3F5F7;stroke-width:3.3333;"/></g><!--link prep to semi1--><g class="link" data-entity-1="ent0006" data-entity-2="ent0007" data-link-type="dependency" data-source-line="45" id="lnk26"><path d="M428.85,861.3805 C428.85,892.8138 428.85,921.1971 428.85,950.0971" fill="none" id="prep-to-semi1" style="stroke:#F3F5F7;stroke-width:3.3333;"/><polygon fill="#F3F5F7" points="428.85,960.0971,435.5167,945.0971,428.85,951.7638,422.1833,945.0971,428.85,960.0971" style="stroke:#F3F5F7;stroke-width:3.3333;"/></g><!--link semi1 to open1--><g class="link" data-entity-1="ent0007" data-entity-2="ent0008" data-link-type="dependency" data-source-line="46" id="lnk27"><path d="M428.85,1049.3805 C428.85,1079.0471 428.85,1108.3805 428.85,1138.1305" fill="none" id="semi1-to-open1" style="stroke:#F3F5F7;stroke-width:3.3333;"/><polygon fill="#F3F5F7" points="428.85,1148.1305,435.5167,1133.1305,428.85,1139.7971,422.1833,1133.1305,428.85,1148.1305" style="stroke:#F3F5F7;stroke-width:3.3333;"/></g><!--link open1 to validate1--><g class="link" data-entity-1="ent0008" data-entity-2="ent0009" data-link-type="dependency" data-source-line="47" id="lnk28"><path d="M428.85,1237.6805 C428.85,1267.3471 428.85,1296.6805 428.85,1326.4305" fill="none" id="open1-to-validate1" style="stroke:#F3F5F7;stroke-width:3.3333;"/><polygon fill="#F3F5F7" points="428.85,1336.4305,435.5167,1321.4305,428.85,1328.0971,422.1833,1321.4305,428.85,1336.4305" style="stroke:#F3F5F7;stroke-width:3.3333;"/></g><!--link validate1 to clash1--><g class="link" data-entity-1="ent0009" data-entity-2="ent0010" data-link-type="dependency" data-source-line="48" id="lnk29"><path d="M428.85,1425.9638 C428.85,1455.6305 428.85,1484.9638 428.85,1514.7305" fill="none" id="validate1-to-clash1" style="stroke:#F3F5F7;stroke-width:3.3333;"/><polygon fill="#F3F5F7" points="428.85,1524.7305,435.5167,1509.7305,428.85,1516.3971,422.1833,1509.7305,428.85,1524.7305" style="stroke:#F3F5F7;stroke-width:3.3333;"/></g><!--link clash1 to qa1--><g class="link" data-entity-1="ent0010" data-entity-2="ent0011" data-link-type="dependency" data-source-line="49" id="lnk30"><path d="M428.85,1614.2638 C428.85,1643.9305 428.85,1673.2638 428.85,1703.0138" fill="none" id="clash1-to-qa1" style="stroke:#F3F5F7;stroke-width:3.3333;"/><polygon fill="#F3F5F7" points="428.85,1713.0138,435.5167,1698.0138,428.85,1704.6805,422.1833,1698.0138,428.85,1713.0138" style="stroke:#F3F5F7;stroke-width:3.3333;"/></g><!--link qa1 to winner1--><g class="link" data-entity-1="ent0011" data-entity-2="ent0012" data-link-type="dependency" data-source-line="50" id="lnk31"><path d="M428.85,1802.5471 C428.85,1832.2305 428.85,1861.5471 428.85,1891.3138" fill="none" id="qa1-to-winner1" style="stroke:#F3F5F7;stroke-width:3.3333;"/><polygon fill="#F3F5F7" points="428.85,1901.3138,435.5167,1886.3138,428.85,1892.9805,422.1833,1886.3138,428.85,1901.3138" style="stroke:#F3F5F7;stroke-width:3.3333;"/></g><!--link winner1 to semi2--><g class="link" data-entity-1="ent0012" data-entity-2="ent0013" data-link-type="dependency" data-source-line="51" id="lnk32"><path d="M389.8,1990.8471 C362.8,2020.5138 333.7319,2052.4524 306.6485,2082.2024" fill="none" id="winner1-to-semi2" style="stroke:#F3F5F7;stroke-width:3.3333;"/><polygon fill="#F3F5F7" points="299.9167,2089.5971,314.9443,2082.993,305.5266,2083.4349,305.0847,2074.0171,299.9167,2089.5971" style="stroke:#F3F5F7;stroke-width:3.3333;"/></g><!--link semi2 to open2--><g class="link" data-entity-1="ent0013" data-entity-2="ent0014" data-link-type="dependency" data-source-line="52" id="lnk33"><path d="M260.5167,2179.1471 C260.5167,2208.8138 260.5167,2238.1471 260.5167,2267.8971" fill="none" id="semi2-to-open2" style="stroke:#F3F5F7;stroke-width:3.3333;"/><polygon fill="#F3F5F7" points="260.5167,2277.8971,267.1833,2262.8971,260.5167,2269.5638,253.85,2262.8971,260.5167,2277.8971" style="stroke:#F3F5F7;stroke-width:3.3333;"/></g><!--link open2 to validate2--><g class="link" data-entity-1="ent0014" data-entity-2="ent0015" data-link-type="dependency" data-source-line="53" id="lnk34"><path d="M260.9,2367.4305 C261.1667,2397.1138 261.4271,2426.4309 261.6938,2456.1975" fill="none" id="open2-to-validate2" style="stroke:#F3F5F7;stroke-width:3.3333;"/><polygon fill="#F3F5F7" points="261.7833,2466.1971,268.3154,2451.138,261.7087,2457.8641,254.9826,2451.2575,261.7833,2466.1971" style="stroke:#F3F5F7;stroke-width:3.3333;"/></g><!--link validate2 to clash2--><g class="link" data-entity-1="ent0015" data-entity-2="ent0016" data-link-type="dependency" data-source-line="54" id="lnk35"><path d="M262.5667,2555.7305 C262.8333,2585.3971 263.0937,2614.7309 263.3604,2644.4809" fill="none" id="validate2-to-clash2" style="stroke:#F3F5F7;stroke-width:3.3333;"/><polygon fill="#F3F5F7" points="263.45,2654.4805,269.982,2639.4213,263.3753,2646.1475,256.6492,2639.5408,263.45,2654.4805" style="stroke:#F3F5F7;stroke-width:3.3333;"/></g><!--link clash2 to qa2--><g class="link" data-entity-1="ent0016" data-entity-2="ent0017" data-link-type="dependency" data-source-line="55" id="lnk36"><path d="M264.6167,2744.0305 C265.15,2773.6971 265.6874,2803.0321 266.2208,2832.7821" fill="none" id="clash2-to-qa2" style="stroke:#F3F5F7;stroke-width:3.3333;"/><polygon fill="#F3F5F7" points="266.4,2842.7805,272.7967,2827.6634,266.2506,2834.4485,259.4655,2827.9024,266.4,2842.7805" style="stroke:#F3F5F7;stroke-width:3.3333;"/></g><!--link qa2 to winner2--><g class="link" data-entity-1="ent0017" data-entity-2="ent0018" data-link-type="dependency" data-source-line="56" id="lnk37"><path d="M267.5667,2932.3138 C267.8333,2961.9971 268.0938,2991.3142 268.3604,3021.0809" fill="none" id="qa2-to-winner2" style="stroke:#F3F5F7;stroke-width:3.3333;"/><polygon fill="#F3F5F7" points="268.45,3031.0805,274.982,3016.0213,268.3753,3022.7475,261.6492,3016.1408,268.45,3031.0805" style="stroke:#F3F5F7;stroke-width:3.3333;"/></g><!--link winner2 to final_round--><g class="link" data-entity-1="ent0018" data-entity-2="ent0019" data-link-type="dependency" data-source-line="57" id="lnk38"><path d="M306.7333,3120.6138 C332.9167,3150.2805 361.0291,3182.1196 387.3124,3211.8696" fill="none" id="winner2-to-final_round" style="stroke:#F3F5F7;stroke-width:3.3333;"/><polygon fill="#F3F5F7" points="393.9333,3219.3638,388.9981,3203.7085,388.4159,3213.1186,379.0058,3212.5364,393.9333,3219.3638" style="stroke:#F3F5F7;stroke-width:3.3333;"/></g><!--link winner1 to final_round--><g class="link" data-entity-1="ent0012" data-entity-2="ent0019" data-link-type="dependency" data-source-line="58" id="lnk39"><path d="M469.65,1990.9638 C493,2017.7305 521.0833,2053.8971 538.85,2090.4305 C585.1,2185.5805 597.1833,2215.4138 597.1833,2321.2138 C597.1833,2321.2138 597.1833,2321.2138 597.1833,2889.4305 C597.1833,2995.2138 584.4,3024.7138 538.85,3120.1971 C521.55,3156.4471 500.7642,3184.9865 478.1308,3211.8199" fill="none" id="winner1-to-final_round" style="stroke:#F3F5F7;stroke-width:3.3333;"/><polygon fill="#F3F5F7" points="471.6833,3219.4638,486.4505,3212.2962,477.0562,3213.0939,476.2586,3203.6996,471.6833,3219.4638" style="stroke:#F3F5F7;stroke-width:3.3333;"/></g><!--link final_round to summaries--><g class="link" data-entity-1="ent0019" data-entity-2="ent0020" data-link-type="dependency" data-source-line="59" id="lnk40"><path d="M432.1833,3308.9138 C432.1833,3338.5805 432.1833,3367.9138 432.1833,3397.6638" fill="none" id="final_round-to-summaries" style="stroke:#F3F5F7;stroke-width:3.3333;"/><polygon fill="#F3F5F7" points="432.1833,3407.6638,438.85,3392.6638,432.1833,3399.3305,425.5167,3392.6638,432.1833,3407.6638" style="stroke:#F3F5F7;stroke-width:3.3333;"/></g><!--link summaries to decision--><g class="link" data-entity-1="ent0020" data-entity-2="ent0021" data-link-type="dependency" data-source-line="60" id="lnk41"><path d="M432.1833,3497.1971 C432.1833,3526.8638 432.1833,3556.1971 432.1833,3585.9638" fill="none" id="summaries-to-decision" style="stroke:#F3F5F7;stroke-width:3.3333;"/><polygon fill="#F3F5F7" points="432.1833,3595.9638,438.85,3580.9638,432.1833,3587.6305,425.5167,3580.9638,432.1833,3595.9638" style="stroke:#F3F5F7;stroke-width:3.3333;"/></g><?plantuml-src jLLDRzim3BtdLn3hSGWGgybw6z2aywdxBh1BW46nsLYhBNcIdAuOjjy-Yd8SEKi75CKETIIIZu_YarXtftGhhMnW8ukxhJMTBbUcDXQybTgH2xMVk27ALR8qzqfluLRM3XDFsIh8NirI2zxAhlQvqVwTR13UqiAXjJ9DU6cjkO-CP_bvliWlZfqtbIhkD3e78d5PBBpKsnhXvmHWULJysIpFH7OHFCQMQ7lh-N8-co_96ceQam9yYd2hqOAOJtvD9bvvodzZEgkfVktXWwbLyG1Nk94U8m3osjnFl6d16zWOxmqTN8NgbD6JoQ7C5vyhQYQqCKLZWly5IDSlqyWhl5KQmLVOEodt5cbh6L06jpe6vSOsC8SQjyhLqgiT9K3PkBMML6K6-0EBZis5QHhbFI9duw0qqQeonk6fU4ekoxw8rg9JPRWS2JHRJCKC6gM3E-WKYbphcq01cqxLPJo_GYfhDQHrw1tWJjOT0w2mogDLSa_KZlk8ZQ86o1gojRvEZXjeu19s3lwoBZcL8sIMfdhVeWvtsRM8HHMA-htWyb4M5KCCHOmWRuQsKBsgx4_OmrgwEb5W1lSHE4fmQRTTk4mEYbgwYh0PWnd1fb7unmvTu73mCX6Yn5fjSD_VnJIR3Ic-on7-Yz9ynEDx0RBSILs4CryRTpBYcr54ExujzFJfVMIF229E2B8wASZL88XukY3YkOA8fmaYdYc8-E-2Y94WEOl1ut2j7-NRHV0f7sTcIRzobZIvuCQwhccafNSCHjSFQzrFHlhtqDB0a5eR3qL5a5Zb4Fw8SiPZEX3YdA6cKljfpl0aZ3VidnLJl78yTlknEPs-JgVbOScUEFduo_l3I1jMUtiRJ2tluX3XB-_ZXE0lxm-FVbYnlN_QyOSjuQNI7w_txwh_7PW4Cuc1IJ2J6369WKaSc4Ha4ZsJ82QHC8cUATfIgTCAKdkoZjKDaXxkGkntBy8V?></g></svg>